<svg xml:space="preserve" style="max-height: 500px" viewBox="0 0 115.33856 112.55135135135134" y="0px" x="0px" xmlns:xlink="http://www.w3.org/1999/xlink" xmlns="http://www.w3.org/2000/svg" id="Layer_1" version="1.1" width="115.33856" height="112.55135135135134">
<g>
	<path d="M4.08,1.38l4.19,3.49V20.6h22.65L34,24.48l-3.09,3.69H8.27v15.04L4.08,46.7L0,43.21V4.87L4.08,1.38z M16.33,41.02H33.6&#10;&#9;&#9;l2.89,3.68l-3.08,3.89H16.33l-2.79-3.59L16.33,41.02z M16.93,0.48H33.4l3.08,3.88L33.4,8.05H17.13l-3.29-3.58L16.93,0.48z&#10;&#9;&#9; M108.72,7.95l3.69,3.98l-3.69,3.99H52.95l-3.59-3.99l3.59-3.98H108.72z M46.37,24.49l3.48-2.99l3.49,2.99v4.39&#10;&#9;&#9;c0,7.37,1.99,13.44,10.86,13.44h1.79c7.97,0,12.35-5.38,12.35-13.75v-4.18l3.39-2.99l3.49,2.89v4.58c0,7.47,2.19,13.05,10.76,13.05&#10;&#9;&#9;h1.49c8.37,0,9.86-6.38,9.96-13.35v-4.48l3.39-2.79l3.58,2.89v4.48c-0.1,9.66-2.69,20.72-16.63,20.72h-1.49&#10;&#9;&#9;c-8.27,0-12.75-3.69-14.54-8.27c-2.09,4.68-7.67,8.77-15.24,8.77H64.7c-14.34,0-18.22-8.66-18.32-20.82V24.49z M74.86,96.59&#10;&#9;&#9;l-1.99-5.38l5.18-1.49l18.23,8.26V80.95l3.69-3.09l3.78,3.09v20.62l6.77,3.09l1.89,4.98l-5.28,1.89L74.86,96.59z M107.33,60.23&#10;&#9;&#9;l4.98,2.29l-1.59,5.08L65.89,88.42l-5.38-2.09l2.19-5.18L107.33,60.23z M42.65,88.62l4.38,3.59c-0.4,12.65-11.26,19.32-24.1,19.32&#10;&#9;&#9;h-1.3c-6.38,0-13.84-2.39-18.62-6.97l0.5-5.08l4.68-0.6c3.49,2.99,8.37,5.08,12.95,5.08h1.4c8.67,0,15.34-3.58,16.04-12.05&#10;&#9;&#9;L42.65,88.62z M38.56,80.35c-0.4-8.77-6.97-12.25-16.04-12.25h-1.4c-5.38,0-9.46,2.09-12.95,5.08l-4.68-0.6l-0.5-5.08&#10;&#9;&#9;c4.78-4.68,11.45-6.87,18.43-6.87h1.39c12.95,0,23.81,6.58,24.2,19.42l-4.38,3.49L38.56,80.35z"/>
	<g>
		<path d="M156.07,14.48h-10.18c0.23,1.98,1.61,3.44,3.64,3.44c1.23,0,2.38-0.49,3.04-1.49l3.24,0.09c-1.15,2.55-3.53,3.9-6.28,3.9&#10;&#9;&#9;&#9;c-3.84,0-6.68-2.87-6.68-6.82c0-3.96,2.78-6.8,6.6-6.8c3.47,0,6.62,2.32,6.62,7.66V14.48z M145.89,12.39h6.97&#10;&#9;&#9;&#9;c-0.14-1.66-1.49-3.1-3.38-3.1C147.55,9.29,146.23,10.55,145.89,12.39z"/>
		<path d="M166.02,10.64c-0.98-0.95-2.41-1.4-3.38-1.4c-1.12,0-1.69,0.6-1.69,1.2c0,0.72,0.32,1.06,1.2,1.38l2.24,0.77&#10;&#9;&#9;&#9;c2.41,0.83,3.41,2.15,3.41,3.76c0,2.07-1.58,4.07-4.82,4.07c-2.12,0-4.22-0.86-5.45-2.04l1.69-2.21c0.98,0.97,2.49,1.69,3.7,1.69&#10;&#9;&#9;&#9;c1.15,0,1.89-0.49,1.89-1.26c0-0.83-0.4-1.17-1.84-1.66l-2.15-0.75c-1.81-0.63-2.81-1.98-2.81-3.58c0-1.89,1.63-3.81,4.73-3.81&#10;&#9;&#9;&#9;c1.52,0,3.56,0.6,4.9,1.86L166.02,10.64z"/>
		<path d="M176.48,17.92c1.49,0,2.64-0.72,3.3-1.89l2.47,1.26c-1.03,1.92-3.3,3.13-5.76,3.13c-3.84,0-6.85-2.84-6.85-6.8&#10;&#9;&#9;&#9;c0-3.99,3.01-6.83,6.85-6.83c2.47,0,4.73,1.2,5.76,3.13l-2.47,1.26c-0.66-1.18-1.81-1.89-3.3-1.89c-2.35,0-3.96,1.86-3.96,4.33&#10;&#9;&#9;&#9;C172.52,16.09,174.13,17.92,176.48,17.92z"/>
		<path d="M184.59,15.37V7.14h2.87V15c0,2.04,1.35,2.95,3.04,2.95s3.04-0.92,3.04-2.95V7.14h2.84v8.23c0,2.72-2.15,5.05-5.88,5.05&#10;&#9;&#9;&#9;S184.59,18.09,184.59,15.37z"/>
		<path d="M212.15,14.48h-10.18c0.23,1.98,1.61,3.44,3.64,3.44c1.23,0,2.38-0.49,3.04-1.49l3.24,0.09c-1.15,2.55-3.53,3.9-6.28,3.9&#10;&#9;&#9;&#9;c-3.84,0-6.68-2.87-6.68-6.82c0-3.96,2.78-6.8,6.6-6.8c3.47,0,6.62,2.32,6.62,7.66V14.48z M201.97,12.39h6.97&#10;&#9;&#9;&#9;c-0.14-1.66-1.49-3.1-3.38-3.1C203.63,9.29,202.31,10.55,201.97,12.39z"/>
		<path d="M217.65,20.07h-2.84V0h2.84V20.07z"/>
		<path d="M228.69,11.38c0-1.38-1.03-2.09-2.7-2.09c-1.4,0-2.67,0.6-3.64,1.38l-1.35-2.12c1.09-0.95,2.92-1.75,5.19-1.75&#10;&#9;&#9;&#9;c3.41,0,5.36,1.89,5.36,4.65v8.63h-2.87v-1.35c-0.75,1.2-2.35,1.69-3.7,1.69c-2.95,0-4.67-1.69-4.67-4.07&#10;&#9;&#9;&#9;c0-2.52,1.78-3.96,4.67-3.96h2.78c0.66,0,0.92-0.29,0.92-0.8V11.38z M228.69,15.34v-1.12c-0.26,0.2-0.72,0.29-1.38,0.29h-1.72&#10;&#9;&#9;&#9;c-1.52,0-2.29,0.66-2.29,1.75c0,1,0.75,1.92,2.29,1.92C227.2,18.18,228.69,17.35,228.69,15.34z"/>
		<path d="M146.55,50.38h-2.84V30.31h2.84v9.06c0.69-1.29,2.49-2.27,4.39-2.27c3.76,0,6.48,2.84,6.48,6.8&#10;&#9;&#9;&#9;c0,3.96-2.78,6.82-6.54,6.82c-1.86,0-3.61-0.92-4.33-2.21V50.38z M146.46,43.9c0,2.47,1.63,4.36,4.01,4.36&#10;&#9;&#9;&#9;c2.35,0,4.01-1.89,4.01-4.36c0-2.47-1.66-4.33-4.01-4.33C148.09,39.57,146.46,41.44,146.46,43.9z"/>
		<path d="M167.54,39.97h-1.49c-1.84,0-3.04,1.06-3.04,3.99v6.42h-2.84V37.45h2.78v2.07c0.49-1.43,1.78-2.29,3.58-2.29&#10;&#9;&#9;&#9;c0.32,0,0.66,0.03,1,0.09V39.97z"/>
		<path d="M173.33,50.38h-2.87V39.8h-1.95v-2.35h4.82V50.38z M171.72,30.77c1.12,0,2.04,0.92,2.04,2.04c0,1.12-0.92,2.01-2.04,2.01&#10;&#9;&#9;&#9;s-2.01-0.89-2.01-2.01C169.71,31.69,170.6,30.77,171.72,30.77z"/>
		<path d="M180.58,32.23v5.22h3.04v2.35h-3.04v7.25c0,0.89,0.66,1.06,1.32,1.06c1,0,1.75-0.12,1.75-0.12v2.38&#10;&#9;&#9;&#9;c0,0-1.41,0.14-2.47,0.14c-1.55,0-3.47-0.32-3.47-2.84V39.8h-2.12v-2.35h2.12v-5.22H180.58z"/>
		<path d="M193.6,41.7c0-1.38-1.03-2.09-2.7-2.09c-1.41,0-2.67,0.6-3.64,1.38l-1.35-2.12c1.09-0.95,2.92-1.75,5.19-1.75&#10;&#9;&#9;&#9;c3.41,0,5.36,1.89,5.36,4.65v8.63h-2.87v-1.35c-0.75,1.2-2.35,1.69-3.7,1.69c-2.95,0-4.67-1.69-4.67-4.07&#10;&#9;&#9;&#9;c0-2.52,1.78-3.96,4.67-3.96h2.78c0.66,0,0.92-0.29,0.92-0.8V41.7z M193.6,45.65v-1.12c-0.26,0.2-0.72,0.29-1.38,0.29h-1.72&#10;&#9;&#9;&#9;c-1.52,0-2.29,0.66-2.29,1.75c0,1,0.75,1.92,2.29,1.92C192.11,48.49,193.6,47.66,193.6,45.65z M190.3,30.31h3.56l-2.47,4.85h-2.75&#10;&#9;&#9;&#9;L190.3,30.31z"/>
		<path d="M202.72,38.2c0,0.37,0,0.6-0.03,0.86c1.09-1.26,2.58-1.95,4.22-1.95c3.04,0,4.82,1.89,4.82,4.85v8.43h-2.87v-8.03&#10;&#9;&#9;&#9;c0-1.84-1.12-2.7-2.55-2.7c-1.23,0-2.44,0.63-3.53,1.89v8.83h-2.84V37.45h2.78V38.2z"/>
		<path d="M218.63,50.38h-2.87V39.8h-1.95v-2.35h4.82V50.38z M217.02,30.77c1.12,0,2.04,0.92,2.04,2.04c0,1.12-0.92,2.01-2.04,2.01&#10;&#9;&#9;&#9;s-2.01-0.89-2.01-2.01C215.02,31.69,215.9,30.77,217.02,30.77z"/>
		<path d="M228.21,48.23c1.49,0,2.64-0.72,3.3-1.89l2.47,1.26c-1.03,1.92-3.3,3.13-5.76,3.13c-3.84,0-6.85-2.84-6.85-6.8&#10;&#9;&#9;&#9;c0-3.99,3.01-6.83,6.85-6.83c2.47,0,4.73,1.2,5.76,3.13l-2.47,1.26c-0.66-1.18-1.81-1.89-3.3-1.89c-2.35,0-3.96,1.86-3.96,4.33&#10;&#9;&#9;&#9;C224.25,46.4,225.85,48.23,228.21,48.23z"/>
		<path d="M243.86,41.7c0-1.38-1.03-2.09-2.7-2.09c-1.4,0-2.67,0.6-3.64,1.38l-1.35-2.12c1.09-0.95,2.92-1.75,5.19-1.75&#10;&#9;&#9;&#9;c3.41,0,5.36,1.89,5.36,4.65v8.63h-2.87v-1.35c-0.75,1.2-2.35,1.69-3.7,1.69c-2.95,0-4.67-1.69-4.67-4.07&#10;&#9;&#9;&#9;c0-2.52,1.78-3.96,4.67-3.96h2.78c0.66,0,0.92-0.29,0.92-0.8V41.7z M243.86,45.65v-1.12c-0.26,0.2-0.72,0.29-1.38,0.29h-1.72&#10;&#9;&#9;&#9;c-1.52,0-2.29,0.66-2.29,1.75c0,1,0.75,1.92,2.29,1.92C242.37,48.49,243.86,47.66,243.86,45.65z"/>
		<path d="M266.34,48.49c-0.69,1.29-2.44,2.24-4.33,2.24c-3.76,0-6.51-2.87-6.51-6.82c0-3.96,2.7-6.8,6.45-6.8&#10;&#9;&#9;&#9;c1.92,0,3.7,0.98,4.42,2.27c-0.03-0.89-0.03-1.95-0.03-2.95v-6.11h2.87v20.07h-2.87V48.49z M258.43,43.9&#10;&#9;&#9;&#9;c0,2.47,1.63,4.36,4.01,4.36c2.35,0,4.01-1.89,4.01-4.36c0-2.47-1.66-4.33-4.01-4.33C260.06,39.57,258.43,41.44,258.43,43.9z"/>
		<path d="M285.18,44.79H275c0.23,1.98,1.61,3.44,3.64,3.44c1.23,0,2.38-0.49,3.04-1.49l3.24,0.09c-1.15,2.55-3.53,3.9-6.28,3.9&#10;&#9;&#9;&#9;c-3.84,0-6.68-2.87-6.68-6.82c0-3.96,2.78-6.8,6.6-6.8c3.47,0,6.62,2.32,6.62,7.66V44.79z M275,42.7h6.97&#10;&#9;&#9;&#9;c-0.14-1.66-1.49-3.1-3.38-3.1C276.66,39.6,275.34,40.86,275,42.7z"/>
		<path d="M151.05,72.01c0-1.38-1.03-2.09-2.7-2.09c-1.41,0-2.67,0.6-3.64,1.38l-1.35-2.12c1.09-0.95,2.92-1.75,5.19-1.75&#10;&#9;&#9;&#9;c3.41,0,5.36,1.89,5.36,4.65v8.63h-2.87v-1.35c-0.75,1.2-2.35,1.69-3.7,1.69c-2.95,0-4.67-1.69-4.67-4.07&#10;&#9;&#9;&#9;c0-2.52,1.78-3.96,4.67-3.96h2.78c0.66,0,0.92-0.29,0.92-0.8V72.01z M151.05,75.96v-1.12c-0.26,0.2-0.72,0.29-1.38,0.29h-1.72&#10;&#9;&#9;&#9;c-1.52,0-2.29,0.66-2.29,1.75c0,1,0.75,1.92,2.29,1.92C149.56,78.8,151.05,77.97,151.05,75.96z"/>
		<path d="M164.75,70.29h-1.49c-1.84,0-3.04,1.06-3.04,3.99v6.42h-2.84V67.76h2.78v2.07c0.49-1.43,1.78-2.29,3.58-2.29&#10;&#9;&#9;&#9;c0.32,0,0.66,0.03,1,0.09V70.29z"/>
		<path d="M170.75,62.54v5.22h3.04v2.35h-3.04v7.25c0,0.89,0.66,1.06,1.32,1.06c1,0,1.75-0.12,1.75-0.12v2.38&#10;&#9;&#9;&#9;c0,0-1.41,0.14-2.47,0.14c-1.55,0-3.47-0.32-3.47-2.84v-7.88h-2.12v-2.35h2.12v-5.22H170.75z"/>
		<path d="M188.78,75.1H178.6c0.23,1.98,1.61,3.44,3.64,3.44c1.23,0,2.38-0.49,3.04-1.49l3.24,0.09c-1.15,2.55-3.53,3.9-6.28,3.9&#10;&#9;&#9;&#9;c-3.84,0-6.68-2.87-6.68-6.82c0-3.96,2.78-6.8,6.6-6.8c3.47,0,6.62,2.32,6.62,7.66V75.1z M178.6,73.01h6.97&#10;&#9;&#9;&#9;c-0.14-1.66-1.49-3.1-3.38-3.1C180.27,69.91,178.95,71.18,178.6,73.01z"/>
		<path d="M198.73,71.26c-0.98-0.95-2.41-1.4-3.38-1.4c-1.12,0-1.69,0.6-1.69,1.2c0,0.72,0.32,1.06,1.2,1.38l2.24,0.77&#10;&#9;&#9;&#9;c2.41,0.83,3.41,2.15,3.41,3.76c0,2.07-1.58,4.07-4.82,4.07c-2.12,0-4.22-0.86-5.45-2.04l1.69-2.21c0.98,0.97,2.49,1.69,3.7,1.69&#10;&#9;&#9;&#9;c1.15,0,1.89-0.49,1.89-1.26c0-0.83-0.4-1.17-1.84-1.66l-2.15-0.75c-1.81-0.63-2.81-1.98-2.81-3.58c0-1.89,1.63-3.81,4.73-3.81&#10;&#9;&#9;&#9;c1.52,0,3.56,0.6,4.9,1.86L198.73,71.26z"/>
		<path d="M214.21,78.54c1.49,0,2.64-0.72,3.3-1.89l2.47,1.26c-1.03,1.92-3.3,3.13-5.76,3.13c-3.84,0-6.85-2.84-6.85-6.8&#10;&#9;&#9;&#9;c0-3.99,3.01-6.83,6.85-6.83c2.47,0,4.73,1.2,5.76,3.13l-2.47,1.26c-0.66-1.18-1.81-1.89-3.3-1.89c-2.35,0-3.96,1.86-3.96,4.33&#10;&#9;&#9;&#9;C210.26,76.71,211.86,78.54,214.21,78.54z"/>
		<path d="M229.9,70.29h-1.49c-1.84,0-3.04,1.06-3.04,3.99v6.42h-2.84V67.76h2.78v2.07c0.49-1.43,1.78-2.29,3.58-2.29&#10;&#9;&#9;&#9;c0.32,0,0.66,0.03,1,0.09V70.29z"/>
		<path d="M244.32,75.1h-10.18c0.23,1.98,1.61,3.44,3.64,3.44c1.23,0,2.38-0.49,3.04-1.49l3.24,0.09c-1.15,2.55-3.53,3.9-6.28,3.9&#10;&#9;&#9;&#9;c-3.84,0-6.68-2.87-6.68-6.82c0-3.96,2.78-6.8,6.6-6.8c3.47,0,6.62,2.32,6.62,7.66V75.1z M234.14,73.01h6.97&#10;&#9;&#9;&#9;c-0.14-1.66-1.49-3.1-3.38-3.1C235.8,69.91,234.49,71.18,234.14,73.01z"/>
		<path d="M254.24,72.01c0-1.38-1.03-2.09-2.7-2.09c-1.4,0-2.67,0.6-3.64,1.38l-1.35-2.12c1.09-0.95,2.92-1.75,5.19-1.75&#10;&#9;&#9;&#9;c3.41,0,5.36,1.89,5.36,4.65v8.63h-2.87v-1.35c-0.75,1.2-2.35,1.69-3.7,1.69c-2.95,0-4.67-1.69-4.67-4.07&#10;&#9;&#9;&#9;c0-2.52,1.78-3.96,4.67-3.96h2.78c0.66,0,0.92-0.29,0.92-0.8V72.01z M254.24,75.96v-1.12c-0.26,0.2-0.72,0.29-1.38,0.29h-1.72&#10;&#9;&#9;&#9;c-1.52,0-2.29,0.66-2.29,1.75c0,1,0.75,1.92,2.29,1.92C252.75,78.8,254.24,77.97,254.24,75.96z"/>
		<path d="M264.22,62.54v5.22h3.04v2.35h-3.04v7.25c0,0.89,0.66,1.06,1.32,1.06c1,0,1.75-0.12,1.75-0.12v2.38&#10;&#9;&#9;&#9;c0,0-1.41,0.14-2.47,0.14c-1.55,0-3.47-0.32-3.47-2.84v-7.88h-2.12v-2.35h2.12v-5.22H264.22z"/>
		<path d="M273.34,80.7h-2.87V70.11h-1.95v-2.35h4.82V80.7z M271.73,61.08c1.12,0,2.04,0.92,2.04,2.04s-0.92,2.01-2.04,2.01&#10;&#9;&#9;&#9;s-2.01-0.89-2.01-2.01S270.61,61.08,271.73,61.08z"/>
		<path d="M282.14,77.97l3.47-10.21h3.04l-4.76,12.93h-3.61l-4.59-12.93h3.18L282.14,77.97z"/>
		<path d="M297.94,72.01c0-1.38-1.03-2.09-2.7-2.09c-1.41,0-2.67,0.6-3.64,1.38l-1.35-2.12c1.09-0.95,2.92-1.75,5.19-1.75&#10;&#9;&#9;&#9;c3.41,0,5.36,1.89,5.36,4.65v8.63h-2.87v-1.35c-0.75,1.2-2.35,1.69-3.7,1.69c-2.95,0-4.67-1.69-4.67-4.07&#10;&#9;&#9;&#9;c0-2.52,1.78-3.96,4.67-3.96h2.78c0.66,0,0.92-0.29,0.92-0.8V72.01z M297.94,75.96v-1.12c-0.26,0.2-0.72,0.29-1.38,0.29h-1.72&#10;&#9;&#9;&#9;c-1.52,0-2.29,0.66-2.29,1.75c0,1,0.75,1.92,2.29,1.92C296.45,78.8,297.94,77.97,297.94,75.96z"/>
		<path d="M311.64,71.26c-0.98-0.95-2.41-1.4-3.38-1.4c-1.12,0-1.69,0.6-1.69,1.2c0,0.72,0.32,1.06,1.2,1.38l2.24,0.77&#10;&#9;&#9;&#9;c2.41,0.83,3.41,2.15,3.41,3.76c0,2.07-1.58,4.07-4.82,4.07c-2.12,0-4.22-0.86-5.45-2.04l1.69-2.21c0.98,0.97,2.49,1.69,3.7,1.69&#10;&#9;&#9;&#9;c1.15,0,1.89-0.49,1.89-1.26c0-0.83-0.4-1.17-1.84-1.66l-2.15-0.75c-1.81-0.63-2.81-1.98-2.81-3.58c0-1.89,1.63-3.81,4.73-3.81&#10;&#9;&#9;&#9;c1.52,0,3.56,0.6,4.9,1.86L311.64,71.26z"/>
		<path d="M147.61,111.01h-0.57l-4.62-12.93h3.21l3.24,10.18l3.38-10.18h3.07l-5.48,15.03c-0.69,1.86-1.78,2.9-4.07,2.9h-2.01v-2.35&#10;&#9;&#9;&#9;h1.58c1.03,0,1.52-0.34,1.89-1.46L147.61,111.01z"/>
		<path d="M166.7,92.86v5.22h3.04v2.35h-3.04v7.25c0,0.89,0.66,1.06,1.32,1.06c1,0,1.75-0.12,1.75-0.12v2.38&#10;&#9;&#9;&#9;c0,0-1.41,0.14-2.47,0.14c-1.55,0-3.47-0.32-3.47-2.84v-7.88h-2.12v-2.35h2.12v-5.22H166.7z"/>
		<path d="M184.74,105.41h-10.18c0.23,1.98,1.61,3.44,3.64,3.44c1.23,0,2.38-0.49,3.04-1.49l3.24,0.09c-1.15,2.55-3.53,3.9-6.28,3.9&#10;&#9;&#9;&#9;c-3.84,0-6.68-2.87-6.68-6.82c0-3.96,2.78-6.8,6.6-6.8c3.47,0,6.62,2.32,6.62,7.66V105.41z M174.56,103.32h6.97&#10;&#9;&#9;&#9;c-0.14-1.66-1.49-3.1-3.38-3.1C176.22,100.22,174.9,101.49,174.56,103.32z"/>
		<path d="M193.28,108.86c1.49,0,2.64-0.72,3.3-1.89l2.47,1.26c-1.03,1.92-3.3,3.13-5.76,3.13c-3.84,0-6.85-2.84-6.85-6.8&#10;&#9;&#9;&#9;c0-3.99,3.01-6.83,6.85-6.83c2.47,0,4.73,1.2,5.76,3.13l-2.47,1.26c-0.66-1.18-1.81-1.89-3.3-1.89c-2.35,0-3.96,1.86-3.96,4.33&#10;&#9;&#9;&#9;C189.33,107.02,190.93,108.86,193.28,108.86z"/>
		<path d="M204.38,98.82c0,0.37,0,0.6-0.03,0.86c1.09-1.26,2.58-1.95,4.22-1.95c3.04,0,4.82,1.89,4.82,4.85v8.43h-2.87v-8.03&#10;&#9;&#9;&#9;c0-1.84-1.12-2.7-2.55-2.7c-1.23,0-2.44,0.63-3.53,1.89v8.83h-2.84V98.07h2.78V98.82z"/>
		<path d="M222.85,97.73c3.81,0,6.91,2.84,6.91,6.8c0,3.96-3.1,6.82-6.91,6.82c-3.81,0-6.88-2.87-6.88-6.82&#10;&#9;&#9;&#9;C215.96,100.57,219.03,97.73,222.85,97.73z M222.85,100.22c-2.35,0-3.99,1.84-3.99,4.3c0,2.47,1.63,4.33,3.99,4.33&#10;&#9;&#9;&#9;c2.35,0,3.99-1.86,3.99-4.33C226.83,102.06,225.2,100.22,222.85,100.22z"/>
		<path d="M235.4,111.01h-2.84V90.93h2.84V111.01z"/>
		<path d="M245.1,97.73c3.81,0,6.91,2.84,6.91,6.8c0,3.96-3.1,6.82-6.91,6.82c-3.81,0-6.88-2.87-6.88-6.82&#10;&#9;&#9;&#9;C238.21,100.57,241.28,97.73,245.1,97.73z M245.1,100.22c-2.35,0-3.99,1.84-3.99,4.3c0,2.47,1.63,4.33,3.99,4.33&#10;&#9;&#9;&#9;c2.35,0,3.99-1.86,3.99-4.33C249.08,102.06,247.45,100.22,245.1,100.22z"/>
		<path d="M267.55,98.07v13.96c0,2.01-1,3.96-4.07,3.96h-5.42v-2.35h4.99c0.77,0,1.63-0.2,1.63-1.38v-3.18&#10;&#9;&#9;&#9;c-0.69,1.26-2.44,2.21-4.33,2.21c-3.73,0-6.48-2.81-6.48-6.77c0-3.99,2.7-6.8,6.45-6.8c1.89,0,3.67,0.98,4.39,2.27&#10;&#9;&#9;&#9;c0-0.29-0.03-0.6-0.03-1v-0.92H267.55z M260.78,108.86c2.38,0,4.01-1.86,4.01-4.33c0-2.5-1.63-4.36-4.01-4.36&#10;&#9;&#9;&#9;c-2.35,0-3.99,1.86-3.99,4.36C256.79,106.99,258.43,108.86,260.78,108.86z"/>
		<path d="M274.6,111.01h-2.84v-10.58h-1.98v-2.35h4.82V111.01z M272.02,90.93h3.56l-2.47,4.85h-2.75L272.02,90.93z"/>
		<path d="M285.55,102.32c0-1.38-1.03-2.09-2.7-2.09c-1.41,0-2.67,0.6-3.64,1.38l-1.35-2.12c1.09-0.95,2.92-1.75,5.19-1.75&#10;&#9;&#9;&#9;c3.41,0,5.36,1.89,5.36,4.65v8.63h-2.87v-1.35c-0.75,1.2-2.35,1.69-3.7,1.69c-2.95,0-4.67-1.69-4.67-4.07&#10;&#9;&#9;&#9;c0-2.52,1.78-3.96,4.67-3.96h2.78c0.66,0,0.92-0.29,0.92-0.8V102.32z M285.55,106.28v-1.12c-0.26,0.2-0.72,0.29-1.38,0.29h-1.72&#10;&#9;&#9;&#9;c-1.52,0-2.29,0.66-2.29,1.75c0,1,0.75,1.92,2.29,1.92C284.06,109.11,285.55,108.28,285.55,106.28z"/>
	</g>
</g>
</svg>